<mxfile host="app.diagrams.net" agent="Mozilla/5.0 (Windows NT 10.0; Win64; x64) AppleWebKit/537.36 (KHTML, like Gecko) Chrome/127.0.0.0 Safari/537.36" version="24.7.7">
  <diagram name="Page-1" id="AeilxOeKfBbN6VHb9rO4">
    <mxGraphModel dx="1434" dy="738" grid="1" gridSize="10" guides="1" tooltips="1" connect="1" arrows="1" fold="1" page="1" pageScale="1" pageWidth="827" pageHeight="1169" math="0" shadow="0">
      <root>
        <mxCell id="0" />
        <mxCell id="1" parent="0" />
        <mxCell id="i1B4wcPK7llWhGmijzuH-1" value="&lt;div&gt;&lt;span style=&quot;font-size: 18px;&quot;&gt;&lt;b&gt;Sportif&lt;/b&gt;&lt;/span&gt;&lt;/div&gt;&lt;div&gt;&lt;u&gt;id_sportif&lt;/u&gt;&lt;/div&gt;&lt;div&gt;Nom&lt;/div&gt;&lt;div&gt;Prenom&lt;/div&gt;&lt;div&gt;Adresse&lt;/div&gt;&lt;div&gt;Telephone&lt;/div&gt;&lt;div&gt;Fax&lt;/div&gt;&lt;div&gt;Mail&lt;/div&gt;&lt;div&gt;Type&lt;/div&gt;" style="rounded=0;whiteSpace=wrap;html=1;" vertex="1" parent="1">
          <mxGeometry x="100" y="310" width="120" height="160" as="geometry" />
        </mxCell>
        <mxCell id="i1B4wcPK7llWhGmijzuH-2" value="&lt;div&gt;&lt;span style=&quot;font-size: 18px;&quot;&gt;&lt;b&gt;Licencie&lt;/b&gt;&lt;/span&gt;&lt;/div&gt;&lt;div&gt;&lt;u&gt;id_Licencie&lt;br&gt;&lt;/u&gt;&lt;/div&gt;&lt;div&gt;Numero_Licence&lt;/div&gt;&lt;div&gt;Club&lt;/div&gt;&lt;div&gt;#id_Sportif&lt;/div&gt;" style="rounded=0;whiteSpace=wrap;html=1;" vertex="1" parent="1">
          <mxGeometry x="320" y="290" width="120" height="100" as="geometry" />
        </mxCell>
        <mxCell id="i1B4wcPK7llWhGmijzuH-3" value="&lt;div&gt;&lt;span style=&quot;font-size: 18px;&quot;&gt;&lt;b&gt;Amateur&lt;/b&gt;&lt;/span&gt;&lt;/div&gt;&lt;div&gt;&lt;u&gt;id_Amateur&lt;br&gt;&lt;/u&gt;&lt;/div&gt;&lt;div&gt;Certificat_Medicale&lt;/div&gt;&lt;div&gt;#id_Sportif&lt;br&gt;&lt;/div&gt;" style="rounded=0;whiteSpace=wrap;html=1;" vertex="1" parent="1">
          <mxGeometry x="320" y="420" width="120" height="100" as="geometry" />
        </mxCell>
        <mxCell id="i1B4wcPK7llWhGmijzuH-4" value="&lt;div&gt;&lt;span style=&quot;font-size: 18px;&quot;&gt;&lt;b&gt;Inscription&lt;/b&gt;&lt;/span&gt;&lt;/div&gt;&lt;div&gt;&lt;u&gt;id_inscription&lt;br&gt;&lt;/u&gt;&lt;/div&gt;&lt;div&gt;Numero_Dossard&lt;/div&gt;&lt;div&gt;Date&lt;/div&gt;&lt;div&gt;#id_Sportif&lt;/div&gt;&lt;div&gt;#id_Competition&lt;/div&gt;" style="rounded=0;whiteSpace=wrap;html=1;" vertex="1" parent="1">
          <mxGeometry x="100" y="50" width="120" height="100" as="geometry" />
        </mxCell>
        <mxCell id="i1B4wcPK7llWhGmijzuH-5" value="&lt;div&gt;&lt;span style=&quot;font-size: 18px;&quot;&gt;&lt;b&gt;Competition&lt;/b&gt;&lt;/span&gt;&lt;/div&gt;&lt;div&gt;&lt;u&gt;id_Competition&lt;br&gt;&lt;/u&gt;&lt;/div&gt;&lt;div&gt;Ville&lt;/div&gt;&lt;div&gt;Date&lt;/div&gt;&lt;div&gt;Descriptif&lt;/div&gt;" style="rounded=0;whiteSpace=wrap;html=1;" vertex="1" parent="1">
          <mxGeometry x="320" y="60" width="120" height="90" as="geometry" />
        </mxCell>
        <mxCell id="i1B4wcPK7llWhGmijzuH-6" value="&lt;div&gt;&lt;span style=&quot;font-size: 18px;&quot;&gt;&lt;b&gt;Epreuve&lt;/b&gt;&lt;/span&gt;&lt;/div&gt;&lt;div&gt;&lt;u&gt;id_Epreuve&lt;br&gt;&lt;/u&gt;&lt;/div&gt;&lt;div&gt;Type&lt;/div&gt;&lt;div&gt;Distance&lt;/div&gt;&lt;div&gt;Conditions&lt;/div&gt;&lt;div&gt;#id_Competition&lt;/div&gt;" style="rounded=0;whiteSpace=wrap;html=1;" vertex="1" parent="1">
          <mxGeometry x="520" y="60" width="120" height="110" as="geometry" />
        </mxCell>
      </root>
    </mxGraphModel>
  </diagram>
</mxfile>
